<svg xmlns="http://www.w3.org/2000/svg" xmlns:xlink="http://www.w3.org/1999/xlink" width="500" zoomAndPan="magnify" viewBox="0 0 375 374.999991" height="500" preserveAspectRatio="xMidYMid meet" version="1.0"><defs><clipPath id="9b69df7ae5"><path d="M 20.191406 14.792969 L 354.691406 14.792969 L 354.691406 182 L 20.191406 182 Z M 20.191406 14.792969 " clip-rule="nonzero"/></clipPath><clipPath id="276a3b5f21"><path d="M 20.296875 194 L 354.796875 194 L 354.796875 361.214844 L 20.296875 361.214844 Z M 20.296875 194 " clip-rule="nonzero"/></clipPath><clipPath id="bf18ca28fa"><path d="M 110.875 106.597656 L 264.625 106.597656 L 264.625 299.347656 L 110.875 299.347656 Z M 110.875 106.597656 " clip-rule="nonzero"/></clipPath><clipPath id="f8fd90b560"><path d="M 11 185.019531 L 55.914062 185.019531 L 55.914062 221 L 11 221 Z M 11 185.019531 " clip-rule="nonzero"/></clipPath><clipPath id="4a2499a71c"><path d="M 319.367188 154.90625 L 364.367188 154.90625 L 364.367188 190.90625 L 319.367188 190.90625 Z M 319.367188 154.90625 " clip-rule="nonzero"/></clipPath></defs><g clip-path="url(#9b69df7ae5)"><path fill="#ffffff" d="M 32.035156 181.84375 C 37.890625 181.84375 42.714844 177.300781 43.128906 171.457031 C 48.46875 96.480469 111.179688 37.109375 187.492188 37.109375 C 263.808594 37.109375 326.515625 96.480469 331.859375 171.457031 C 332.273438 177.300781 337.09375 181.84375 342.953125 181.84375 L 343.039062 181.84375 C 349.484375 181.84375 354.582031 176.378906 354.128906 169.949219 C 352.847656 151.597656 348.585938 133.773438 341.414062 116.816406 C 333 96.921875 320.957031 79.058594 305.617188 63.71875 C 290.28125 48.382812 272.414062 36.339844 252.519531 27.921875 C 231.921875 19.210938 210.039062 14.792969 187.492188 14.792969 C 164.945312 14.792969 143.066406 19.210938 122.464844 27.921875 C 102.574219 36.339844 84.710938 48.382812 69.371094 63.71875 C 54.03125 79.058594 41.988281 96.921875 33.574219 116.816406 C 26.402344 133.773438 22.140625 151.597656 20.855469 169.949219 C 20.40625 176.378906 25.5 181.84375 31.949219 181.84375 L 32.035156 181.84375 " fill-opacity="1" fill-rule="nonzero"/></g><g clip-path="url(#276a3b5f21)"><path fill="#2caaff" d="M 342.953125 194.164062 C 337.097656 194.164062 332.273438 198.707031 331.859375 204.546875 C 326.519531 279.523438 263.808594 338.894531 187.496094 338.894531 C 111.179688 338.894531 48.472656 279.523438 43.128906 204.546875 C 42.714844 198.707031 37.894531 194.164062 32.035156 194.164062 L 31.949219 194.164062 C 25.503906 194.164062 20.40625 199.628906 20.859375 206.058594 C 22.140625 224.410156 26.402344 242.230469 33.574219 259.191406 C 41.988281 279.085938 54.03125 296.949219 69.371094 312.285156 C 84.707031 327.625 102.574219 339.667969 122.46875 348.082031 C 143.066406 356.796875 164.949219 361.214844 187.496094 361.214844 C 210.042969 361.214844 231.921875 356.796875 252.523438 348.082031 C 272.414062 339.667969 290.277344 327.625 305.617188 312.285156 C 320.957031 296.949219 333 279.085938 341.414062 259.191406 C 348.585938 242.230469 352.847656 224.410156 354.132812 206.058594 C 354.582031 199.628906 349.488281 194.164062 343.039062 194.164062 L 342.953125 194.164062 " fill-opacity="1" fill-rule="nonzero"/></g><g clip-path="url(#bf18ca28fa)"><path fill="#ffffff" d="M 202.984375 299.417969 L 172.308594 299.417969 C 169.882812 299.417969 167.925781 297.453125 167.925781 295.035156 L 167.925781 137.273438 L 115.339844 137.273438 C 112.914062 137.273438 110.957031 135.3125 110.957031 132.890625 L 110.957031 110.980469 C 110.957031 108.5625 112.914062 106.597656 115.339844 106.597656 L 259.953125 106.597656 C 262.375 106.597656 264.335938 108.5625 264.335938 110.980469 L 264.335938 132.890625 C 264.335938 135.3125 262.375 137.273438 259.953125 137.273438 L 207.367188 137.273438 L 207.367188 295.035156 C 207.367188 297.453125 205.40625 299.417969 202.984375 299.417969 Z M 202.984375 299.417969 " fill-opacity="1" fill-rule="nonzero"/></g><g clip-path="url(#f8fd90b560)"><path fill="#2caaff" d="M 33.152344 185.125 C 31.726562 185.195312 30.492188 186.144531 29.746094 187.316406 C 23.847656 196.542969 17.941406 205.765625 12.046875 214.996094 C 11.34375 216.0625 10.917969 217.417969 11.3125 218.679688 C 11.75 220.21875 13.421875 221.019531 14.933594 220.957031 C 27.195312 220.972656 39.457031 220.96875 51.714844 220.980469 C 53.050781 220.996094 54.53125 220.4375 55.144531 219.175781 C 55.820312 217.867188 55.417969 216.285156 54.660156 215.105469 C 48.777344 205.871094 42.890625 196.636719 37.007812 187.40625 C 36.207031 186.085938 34.757812 185.007812 33.152344 185.125 Z M 33.152344 185.125 " fill-opacity="1" fill-rule="nonzero"/></g><g clip-path="url(#4a2499a71c)"><path fill="#ffffff" d="M 342.132812 190.800781 C 343.558594 190.730469 344.792969 189.78125 345.535156 188.609375 C 351.4375 179.382812 357.34375 170.15625 363.238281 160.925781 C 363.941406 159.859375 364.367188 158.503906 363.972656 157.246094 C 363.535156 155.707031 361.863281 154.902344 360.347656 154.964844 C 348.089844 154.949219 335.828125 154.953125 323.566406 154.945312 C 322.234375 154.925781 320.753906 155.484375 320.140625 156.75 C 319.460938 158.058594 319.867188 159.636719 320.625 160.820312 C 326.503906 170.050781 332.394531 179.285156 338.277344 188.515625 C 339.078125 189.839844 340.527344 190.914062 342.132812 190.800781 Z M 342.132812 190.800781 " fill-opacity="1" fill-rule="nonzero"/></g></svg>