<svg width="21" height="24" fill="none" xmlns="http://www.w3.org/2000/svg"><path d="M8.424 7.217a.564.564 0 00.786-.135l2.062-2.917-.388-.274a.564.564 0 00-.229-.162l-2.3-1.626a.564.564 0 10-.65.921l1.181.836a9.023 9.023 0 001.572 17.908.564.564 0 000-1.128A7.895 7.895 0 019.352 4.927L8.29 6.43a.564.564 0 00.135.786zm6.833 11.769a7.88 7.88 0 01-2.48 1.28.56.56 0 00-.374.705.561.561 0 00.692.376v.002l.013-.004.02-.007a8.928 8.928 0 002.815-1.457.563.563 0 00.106-.792.578.578 0 00-.792-.103zm3.01-7.443a.566.566 0 00.641.474.568.568 0 00.474-.64 8.963 8.963 0 00-1.023-3.024.565.565 0 00-.987.547c.454.82.757 1.715.895 2.643zM13.6 4.254a.569.569 0 00-.761.526.565.565 0 00.367.53 7.893 7.893 0 012.392 1.412l.003.002c.002.004.006.006.008.008l.004.002a.554.554 0 00.6.084.564.564 0 00.133-.94 8.969 8.969 0 00-2.747-1.624zm5.256 9.645a.573.573 0 00-.668.436 7.814 7.814 0 01-1.045 2.587.564.564 0 00.953.604 8.967 8.967 0 001.198-2.962.565.565 0 00-.438-.665z" fill="#fff"/></svg>