<svg version="1.1" id="Layer_1" xmlns="http://www.w3.org/2000/svg" xmlns:xlink="http://www.w3.org/1999/xlink" x="0px" y="0px"
	 width="100%" viewBox="0 0 600 600" enable-background="new 0 0 600 600" xml:space="preserve">
<path fill="#ffffff" opacity="1.000000" stroke="none" 
	d="
M423.322968,55.590179 
	C511.871857,94.614227 567.407837,160.961243 585.624268,255.548050 
	C601.166443,336.249695 581.956787,410.080170 530.299622,474.390137 
	C488.971649,525.840942 435.253998,558.353699 370.313812,569.757690 
	C282.949829,585.099365 205.132462,563.124268 138.899536,503.652313 
	C94.976723,464.213104 67.431374,414.777130 56.216335,356.929352 
	C42.894531,288.214630 54.476707,223.359238 91.213310,163.652756 
	C126.008919,107.100891 175.581665,68.750290 238.687500,48.145786 
	C273.140869,36.896515 308.544159,33.469959 344.645844,36.568031 
	C371.731445,38.892391 397.783112,45.316772 423.322968,55.590179 
M189.181503,474.293793 
	C238.863892,512.118530 294.817078,526.095215 356.204498,516.310730 
	C405.415436,508.467010 447.001953,485.390442 480.233093,448.122223 
	C519.671753,403.892334 537.838928,351.957520 534.912048,292.717285 
	C533.264099,259.361145 524.001770,228.208725 507.504883,199.220688 
	C462.411407,119.983421 373.890839,78.296204 284.258972,93.641426 
	C232.623764,102.481529 189.463562,127.322502 156.032761,167.831467 
	C113.702782,219.123779 98.348320,278.193695 109.803757,343.440979 
	C119.156433,396.711456 146.233826,440.118774 189.181503,474.293793 
z"/>
<path fill="#ffffff" opacity="1.000000" stroke="none" 
	d="
M280.089172,172.088913 
	C286.203003,165.589905 292.292389,159.836411 301.303802,158.298279 
	C312.387817,156.406403 324.484100,162.149384 329.932098,172.286331 
	C335.638214,182.903564 334.326904,195.482788 326.126495,203.763275 
	C305.024872,225.070984 283.786499,246.243835 262.512207,267.379456 
	C259.699677,270.173615 256.359894,272.437042 252.716843,275.389984 
	C256.738281,278.141785 259.435242,277.646606 261.968079,277.647797 
	C326.112701,277.678436 390.257355,277.666901 454.401978,277.678619 
	C469.828613,277.681427 480.149963,286.561615 482.525269,301.800110 
	C484.885315,316.940613 472.169891,332.165222 456.770569,332.284180 
	C436.445435,332.441223 416.118164,332.329590 395.791809,332.328888 
	C351.307098,332.327362 306.822388,332.314880 262.337708,332.343658 
	C260.124542,332.345093 257.661743,331.684509 255.791061,333.806946 
	C256.454102,336.749054 258.793945,338.261475 260.614075,340.087708 
	C281.546356,361.090179 302.517334,382.054138 323.493134,403.013184 
	C332.552490,412.065399 336.119263,422.544739 331.203552,434.843170 
	C323.893555,453.131958 300.603973,457.762451 286.073853,443.582764 
	C266.639648,424.617188 247.579437,405.268250 228.372971,386.069550 
	C208.577316,366.281921 188.798325,346.477570 169.013153,326.679443 
	C155.168396,312.825623 155.041016,297.139038 168.856049,283.301788 
	C205.817291,246.281082 242.841629,209.323364 280.089172,172.088913 
z"/>
</svg>