<svg width="21" height="24" fill="none" xmlns="http://www.w3.org/2000/svg"><path d="M16.808 7.515A.613.613 0 0017 7.078a.587.587 0 00-.192-.436L14.209 4.18A.654.654 0 0013.75 4a.684.684 0 00-.462.18.616.616 0 00-.191.438.59.59 0 00.19.436l1.495 1.41h-6.23a4.68 4.68 0 00-3.215 1.26 4.193 4.193 0 00-1.332 3.045.6.6 0 00.19.435.67.67 0 00.46.18.669.669 0 00.459-.18.6.6 0 00.19-.435c0-.404.084-.804.247-1.177a3.07 3.07 0 01.704-.998 3.27 3.27 0 011.054-.666 3.407 3.407 0 011.243-.235h6.23l-1.494 1.41a.614.614 0 00-.192.436.587.587 0 00.192.437.652.652 0 00.461.182.681.681 0 00.461-.182l2.599-2.461zM6.79 14.023a.671.671 0 01.46-.18c.174 0 .34.065.462.18a.602.602 0 01.191.437.606.606 0 01-.19.437l-1.495 1.408h6.23c.861 0 1.688-.323 2.297-.9.609-.577.951-1.36.951-2.175 0-.163.068-.32.19-.435a.668.668 0 01.46-.18c.172 0 .337.064.459.18a.6.6 0 01.19.435 4.194 4.194 0 01-1.332 3.045 4.68 4.68 0 01-3.215 1.26h-6.23l1.494 1.41a.614.614 0 01.192.436.587.587 0 01-.192.437.652.652 0 01-.461.182.682.682 0 01-.461-.182l-2.599-2.46A.614.614 0 014 16.92a.587.587 0 01.192-.437l2.599-2.46z" fill="#fff"/></svg>