<svg width="20" height="24" fill="none" xmlns="http://www.w3.org/2000/svg"><path d="M5.943 12.973a1.138 1.138 0 100-2.276 1.138 1.138 0 000 2.276zm4.076 0a1.138 1.138 0 100-2.276 1.138 1.138 0 000 2.276zm4.076 0a1.138 1.138 0 100-2.276 1.138 1.138 0 000 2.276z" fill="#fff"/><path d="M9.988 2C4.486 2 0 6.49 0 12s4.486 10 9.988 10C15.491 22 20 17.532 20 12 20 6.49 15.514 2 9.988 2zm0 18.634c-4.74 0-8.6-3.866-8.6-8.61 0-4.746 3.86-8.612 8.6-8.612s8.602 3.866 8.602 8.611c.023 4.745-3.839 8.611-8.602 8.611z" fill="#fff"/></svg>