<svg xmlns="http://www.w3.org/2000/svg" xmlns:xlink="http://www.w3.org/1999/xlink" width="500" zoomAndPan="magnify" viewBox="0 0 375 374.999991" height="500" preserveAspectRatio="xMidYMid meet" version="1.0"><defs><clipPath id="d67be43cbd"><path d="M 0 187.5 C 0 291.054688 83.945312 375 187.5 375 C 291.054688 375 375 291.054688 375 187.5 C 375 83.945312 291.054688 0 187.5 0 C 83.945312 0 0 83.945312 0 187.5 Z M 0 187.5 " clip-rule="nonzero"/></clipPath><clipPath id="9047bbc6ab"><path d="M 110.730469 106.597656 L 264.480469 106.597656 L 264.480469 299.347656 L 110.730469 299.347656 Z M 110.730469 106.597656 " clip-rule="nonzero"/></clipPath><clipPath id="097bb7e50a"><path d="M 39 193.1875 L 336 193.1875 L 336 341.6875 L 39 341.6875 Z M 39 193.1875 " clip-rule="nonzero"/></clipPath><clipPath id="d13a8bd735"><path d="M 30.183594 184.636719 L 69.933594 184.636719 L 69.933594 216.886719 L 30.183594 216.886719 Z M 30.183594 184.636719 " clip-rule="nonzero"/></clipPath><clipPath id="db65cb2bc0"><path d="M 39 33.304688 L 336 33.304688 L 336 181.804688 L 39 181.804688 Z M 39 33.304688 " clip-rule="nonzero"/></clipPath><clipPath id="4feb60f9be"><path d="M 305.066406 158.027344 L 344.816406 158.027344 L 344.816406 190 L 305.066406 190 Z M 305.066406 158.027344 " clip-rule="nonzero"/></clipPath></defs><g clip-path="url(#d67be43cbd)"><rect x="-37.5" width="450" fill="#ffffff" y="-37.499999" height="449.999989" fill-opacity="1"/></g><g clip-path="url(#9047bbc6ab)"><path fill="#0081de" d="M 202.835938 299.417969 L 172.160156 299.417969 C 169.738281 299.417969 167.777344 297.453125 167.777344 295.035156 L 167.777344 137.273438 L 115.191406 137.273438 C 112.769531 137.273438 110.808594 135.3125 110.808594 132.890625 L 110.808594 110.980469 C 110.808594 108.5625 112.769531 106.597656 115.191406 106.597656 L 259.808594 106.597656 C 262.230469 106.597656 264.1875 108.5625 264.1875 110.980469 L 264.1875 132.890625 C 264.1875 135.3125 262.230469 137.273438 259.808594 137.273438 L 207.21875 137.273438 L 207.21875 295.035156 C 207.21875 297.453125 205.261719 299.417969 202.835938 299.417969 Z M 202.835938 299.417969 " fill-opacity="1" fill-rule="nonzero"/></g><g clip-path="url(#097bb7e50a)"><path fill="#7ecee8" d="M 325.757812 192.976562 C 320.546875 192.976562 316.253906 197.019531 315.882812 202.21875 C 311.128906 268.964844 255.304688 321.816406 187.367188 321.816406 C 119.429688 321.816406 63.609375 268.964844 58.851562 202.21875 C 58.480469 197.019531 54.191406 192.976562 48.976562 192.976562 L 48.898438 192.976562 C 43.160156 192.976562 38.625 197.839844 39.023438 203.566406 C 40.167969 219.898438 43.960938 235.765625 50.347656 250.863281 C 57.835938 268.574219 68.558594 284.476562 82.210938 298.128906 C 95.867188 311.785156 111.769531 322.503906 129.480469 329.996094 C 147.820312 337.753906 167.296875 341.6875 187.367188 341.6875 C 207.4375 341.6875 226.914062 337.753906 245.257812 329.996094 C 262.964844 322.503906 278.867188 311.785156 292.519531 298.128906 C 306.175781 284.476562 316.898438 268.574219 324.386719 250.863281 C 330.773438 235.765625 334.566406 219.898438 335.710938 203.566406 C 336.109375 197.839844 331.574219 192.976562 325.835938 192.976562 L 325.757812 192.976562 " fill-opacity="1" fill-rule="nonzero"/></g><g clip-path="url(#d13a8bd735)"><path fill="#7ecee8" d="M 49.976562 184.929688 C 48.703125 184.992188 47.609375 185.839844 46.945312 186.882812 C 41.691406 195.097656 36.433594 203.308594 31.1875 211.523438 C 30.5625 212.472656 30.179688 213.679688 30.53125 214.800781 C 30.925781 216.171875 32.410156 216.886719 33.757812 216.832031 C 44.671875 216.84375 55.585938 216.839844 66.5 216.851562 C 67.691406 216.867188 69.007812 216.367188 69.554688 215.242188 C 70.15625 214.078125 69.796875 212.671875 69.121094 211.621094 C 63.886719 203.402344 58.644531 195.183594 53.410156 186.964844 C 52.695312 185.785156 51.402344 184.828125 49.976562 184.929688 Z M 49.976562 184.929688 " fill-opacity="1" fill-rule="nonzero"/></g><g clip-path="url(#db65cb2bc0)"><path fill="#0081de" d="M 48.976562 182.015625 C 54.1875 182.015625 58.480469 177.96875 58.851562 172.769531 C 63.605469 106.023438 119.429688 53.171875 187.367188 53.171875 C 255.304688 53.171875 311.125 106.023438 315.882812 172.769531 C 316.253906 177.96875 320.542969 182.015625 325.757812 182.015625 L 325.835938 182.015625 C 331.574219 182.015625 336.109375 177.148438 335.710938 171.425781 C 334.566406 155.089844 330.773438 139.222656 324.386719 124.125 C 316.898438 106.417969 306.175781 90.515625 292.523438 76.859375 C 278.867188 63.207031 262.964844 52.484375 245.253906 44.992188 C 226.914062 37.238281 207.4375 33.304688 187.367188 33.304688 C 167.296875 33.304688 147.820312 37.238281 129.476562 44.992188 C 111.769531 52.484375 95.867188 63.207031 82.214844 76.859375 C 68.558594 90.515625 57.835938 106.417969 50.347656 124.125 C 43.960938 139.222656 40.167969 155.089844 39.023438 171.425781 C 38.625 177.148438 43.160156 182.015625 48.898438 182.015625 L 48.976562 182.015625 " fill-opacity="1" fill-rule="nonzero"/></g><g clip-path="url(#4feb60f9be)"><path fill="#0081de" d="M 325.023438 189.984375 C 326.292969 189.921875 327.390625 189.078125 328.054688 188.035156 C 333.304688 179.820312 338.5625 171.609375 343.8125 163.390625 C 344.4375 162.441406 344.816406 161.234375 344.464844 160.113281 C 344.074219 158.746094 342.585938 158.03125 341.238281 158.085938 C 330.324219 158.070312 319.410156 158.074219 308.496094 158.066406 C 307.308594 158.050781 305.992188 158.550781 305.445312 159.671875 C 304.839844 160.835938 305.199219 162.246094 305.875 163.296875 C 311.109375 171.515625 316.351562 179.734375 321.589844 187.953125 C 322.304688 189.128906 323.59375 190.089844 325.023438 189.984375 Z M 325.023438 189.984375 " fill-opacity="1" fill-rule="nonzero"/></g></svg>