<svg xmlns="http://www.w3.org/2000/svg" xmlns:xlink="http://www.w3.org/1999/xlink" width="500" zoomAndPan="magnify" viewBox="0 0 375 374.999991" height="500" preserveAspectRatio="xMidYMid meet" version="1.0"><defs><clipPath id="433e3a787b"><path d="M 6.21875 6.21875 L 368.46875 6.21875 L 368.46875 368.46875 L 6.21875 368.46875 Z M 6.21875 6.21875 " clip-rule="nonzero"/></clipPath></defs><g clip-path="url(#433e3a787b)"><path fill="#ffffff" d="M 187.496094 6.21875 C 287.605469 6.21875 368.773438 87.386719 368.773438 187.496094 C 368.773438 287.605469 287.605469 368.773438 187.496094 368.773438 C 87.386719 368.773438 6.21875 287.605469 6.21875 187.496094 C 6.21875 87.386719 87.386719 6.21875 187.496094 6.21875 Z M 187.496094 153.226562 L 241.160156 77.015625 L 289.410156 77.015625 L 211.847656 187.496094 L 289.410156 298.425781 L 241.160156 298.425781 L 187.496094 222.21875 L 134.285156 298.425781 L 86.035156 298.425781 L 163.597656 187.496094 L 86.035156 77.015625 L 134.285156 77.015625 Z M 187.496094 15.238281 C 92.347656 15.238281 15.238281 92.347656 15.238281 187.496094 C 15.238281 283.09375 92.347656 360.207031 187.496094 360.207031 C 283.09375 360.207031 360.207031 283.09375 360.207031 187.496094 C 360.207031 92.347656 283.09375 15.238281 187.496094 15.238281 Z M 187.496094 15.238281 " fill-opacity="1" fill-rule="nonzero"/></g></svg>